<svg xmlns="http://www.w3.org/2000/svg" xmlns:xlink="http://www.w3.org/1999/xlink" viewBox="0 0 99 99"><defs><linearGradient id="a" x1="30.64" y1="46.01" x2="64.76" y2="92.93" gradientUnits="userSpaceOnUse"><stop offset="0" stop-color="#eceff1"/><stop offset="0.27" stop-color="#eceff1"/><stop offset="0.64" stop-color="#cfd8dc"/><stop offset="0.93" stop-color="#cfd8dc"/><stop offset="1" stop-color="#cfd8dc"/></linearGradient><linearGradient id="b" x1="47.67" y1="10.94" x2="47.93" y2="34.82" gradientUnits="userSpaceOnUse"><stop offset="0" stop-color="#b0bec5"/><stop offset="0.65" stop-color="#9faeb9"/><stop offset="1" stop-color="#b0bec5"/></linearGradient><linearGradient id="c" x1="34.4" y1="15.24" x2="56.31" y2="45.36" xlink:href="#a"/><linearGradient id="d" x1="29.37" y1="18.9" x2="51.27" y2="49.02" xlink:href="#a"/><linearGradient id="e" x1="32.09" y1="16.92" x2="53.99" y2="47.04" xlink:href="#a"/><linearGradient id="f" x1="25.83" y1="21.47" x2="47.73" y2="51.59" xlink:href="#a"/><linearGradient id="g" x1="45.88" y1="5.5" x2="49.63" y2="19.45" gradientUnits="userSpaceOnUse"><stop offset="0" stop-color="#eceff1"/><stop offset="1" stop-color="#cdd6da"/></linearGradient></defs><title>contacts</title><rect x="34.3" y="66.61" width="17.73" height="17.73" style="fill:#6f38d4"/><path d="M78.14,71.47l-1.29-.6q0-.77,0-1.55a29,29,0,0,0-49-21l-1.58-.83-3.49,4,1,1.66a29,29,0,0,0,5.62,38.51l-.5,1.63,7.52,4.12.78-1.14A29,29,0,0,0,75.84,77.05l1.4-.21Z" style="fill:url(#a)"/><path d="M35.79,51.54a4.12,4.12,0,1,0,4.12,4.12A4.12,4.12,0,0,0,35.79,51.54Zm0,7.52a3.4,3.4,0,1,1,3.4-3.4A3.41,3.41,0,0,1,35.79,59.06Z" style="fill:#dde3e6"/><path d="M27.19,67.06a2.69,2.69,0,1,0,2.69,2.69A2.69,2.69,0,0,0,27.19,67.06Zm0,4.48A1.79,1.79,0,1,1,29,69.74,1.79,1.79,0,0,1,27.19,71.53Z" style="fill:#dde3e6"/><path d="M47.49,61.63a1.91,1.91,0,1,0,1.91,1.91A1.91,1.91,0,0,0,47.49,61.63Zm0,2.92a1,1,0,1,1,1-1A1,1,0,0,1,47.49,64.55Z" style="fill:#d2d8db"/><path d="M58.29,86.34a2.51,2.51,0,1,0,2.51,2.51A2.51,2.51,0,0,0,58.29,86.34Zm0,4.12a1.61,1.61,0,1,1,1.61-1.61A1.61,1.61,0,0,1,58.29,90.45Z" style="fill:#dce2e5"/><path d="M39.82,74.1A7.19,7.19,0,1,0,47,81.29,7.19,7.19,0,0,0,39.82,74.1Zm0,13.67a6.48,6.48,0,1,1,6.48-6.48A6.48,6.48,0,0,1,39.82,87.77Z" style="fill:#dde4e6"/><path d="M39.82,75.53a5.76,5.76,0,1,0,5.76,5.76A5.77,5.77,0,0,0,39.82,75.53Zm0,10.8a5,5,0,1,1,5-5A5,5,0,0,1,39.82,86.34Z" style="fill:#dde4e6"/><path d="M66.14,69.27a5.34,5.34,0,1,0,5.34,5.34A5.34,5.34,0,0,0,66.14,69.27Zm0,10a4.63,4.63,0,1,1,4.63-4.63A4.63,4.63,0,0,1,66.14,79.23Z" style="fill:#dce2e5"/><path d="M62.59,51.48A4.48,4.48,0,1,0,67.07,56,4.48,4.48,0,0,0,62.59,51.48Zm0,8.24A3.76,3.76,0,1,1,66.35,56,3.76,3.76,0,0,1,62.59,59.72Z" style="fill:#d2d8db"/><path d="M62.59,52.91a3,3,0,1,0,3,3A3,3,0,0,0,62.59,52.91Zm0,5.37A2.33,2.33,0,1,1,64.92,56,2.33,2.33,0,0,1,62.59,58.28Z" style="fill:#d2d8db"/><path d="M15.16,39.7s.13-.51.6-.51.74-1.05.74-1.05a.57.57,0,0,1,.9,0c.43.51.29.94.92,1s.63.51.63.51,0,.49-.72.56a.61.61,0,0,0-.6.69s-.16.45-.49.47-.72-.9-.72-.9S15.32,40.41,15.16,39.7Z" style="fill:#d2d8db"/><circle cx="13.32" cy="52.05" r="1.05" style="fill:#d2d8db"/><circle cx="4.96" cy="44.07" r="1" style="fill:#d2d8db"/><path d="M81.73,38.94a.68.68,0,0,1,.58-.51A.9.9,0,0,0,83,37.5a.4.4,0,0,1,.76-.1A1.46,1.46,0,0,0,85,38.6c.88.18.19.81-.39.88s-.28,1.33-.94,1.37-.64-1-.64-1a1.41,1.41,0,0,0-1-.49C81.6,39.21,81.73,38.94,81.73,38.94Z" style="fill:#d2d8db"/><path d="M84.81,53a.68.68,0,0,1,.58-.51.9.9,0,0,0,.73-.94.4.4,0,0,1,.76-.1A1.46,1.46,0,0,0,88,52.66c.88.18.19.81-.39.88s-.28,1.33-.94,1.37-.64-1-.64-1a1.41,1.41,0,0,0-1-.49C84.67,53.27,84.81,53,84.81,53Z" style="fill:#d2d8db"/><circle cx="76.2" cy="46.38" r="0.98" style="fill:#d2d8db"/><circle cx="95.31" cy="43.14" r="1" style="fill:#d2d8db"/><ellipse cx="47.76" cy="45.72" rx="10.86" ry="2.75" style="fill:#dbe1e5"/><path d="M56.92,1.85a1,1,0,1,0-1.25,1v9.1h.48V2.83A1,1,0,0,0,56.92,1.85Z" style="fill:#78909c"/><path d="M46.67,42.14v2.27a2.9,2.9,0,0,1,0,.54h2.26V42.14Z" style="fill:none"/><polygon points="48.95 29.01 46.62 29.01 46.65 35.69 48.92 35.69 48.95 29.01" style="fill:none"/><path d="M46.62,29h2.33l0,6.69h5.42l.1-7s2.63.42,2.63-1.79V11.7s.18-1.13-1.67-1.07l-16.18.06s-.9.42-.78,1.19V27a2.55,2.55,0,0,0,2.39,1.91l.18,6.8h5.63Z" style="fill:url(#b)"/><path d="M46.68,44.41V42.14H41.19v.06s-.42,1.55-1.19,1.73a.93.93,0,0,0-.62,1h7.26A2.9,2.9,0,0,0,46.68,44.41Z" style="fill:#b0bec5"/><path d="M48.89,44.94h7.36a2,2,0,0,0-.32-1c-.49-.65-.83.53-1.48-1.85H48.9Z" style="fill:#b0bec5"/><path d="M48.9,42.14h5.55c-.06-.23-.13-.48-.19-.78l.08-5.67H48.92Z" style="fill:url(#c)"/><path d="M48.9,42.14h5.55c-.06-.23-.13-.48-.19-.78l.08-5.67H48.92Z" style="fill:#cfd8dc"/><polygon points="46.65 35.69 41.02 35.69 41.19 42.14 46.67 42.14 46.65 35.69" style="fill:url(#d)"/><polygon points="46.65 35.69 41.02 35.69 41.19 42.14 46.67 42.14 46.65 35.69" style="fill:#cfd8dc"/><path d="M48.89,45a1,1,0,0,0,.9.9l5.61-.06s.87-.1.86-.9H48.89Z" style="fill:url(#e)"/><path d="M48.89,45a1,1,0,0,0,.9.9l5.61-.06s.87-.1.86-.9H48.89Z" style="fill:#78909c"/><path d="M40,45.84,46,46a1.34,1.34,0,0,0,.61-1H39.37A1,1,0,0,0,40,45.84Z" style="fill:url(#f)"/><path d="M40,45.84,46,46a1.34,1.34,0,0,0,.61-1H39.37A1,1,0,0,0,40,45.84Z" style="fill:#78909c"/><path d="M47.76,19.93S39,18.26,36.24,14s-5.12-2.09-4.24.24c1,2.63,9.13,9.91,9.13,9.91l14,.42,4.18,3,4.54.12s2.07-2.39-.18-3.7c-1.38-.17-3,.36-4.72-1.37s-4.6-4-4.6-4Z" style="fill:#ccd6da"/><path d="M52.38,18.31a7.22,7.22,0,1,0-9.9-.73l7.61-.09Z" style="fill:url(#g)"/><path d="M52.38,18.31a7.22,7.22,0,0,1-9.9-.73l-2.72,0-.06,9.61L41,30l5.55,2.27,2.63.06,5.25-2.15,1.31-2,.06-8.65Z" style="fill:#fff"/><path d="M53.07,11.76,52,11.22a4.9,4.9,0,0,0-4.6-2.81,4,4,0,0,0-3.76,3s-1,0-1.07.72l-.12,1.55a1.11,1.11,0,0,0,.9,1.07A12.34,12.34,0,0,0,45,17.07l-.31-4.78a2.41,2.41,0,0,1,2.69-2.15c2.57,0,3.52,1,3.52,2.15,0,.69.08,2.57.15,4a7.66,7.66,0,0,0,1-1.64s1.19,0,1.13-1Z" style="fill:#78909c"/><path d="M47.34,10.14a2.41,2.41,0,0,0-2.69,2.15L45,17.07a3.66,3.66,0,0,0,2.25,1.37A4.79,4.79,0,0,0,51,16.32c-.07-1.45-.15-3.33-.15-4C50.86,11.1,49.9,10.14,47.34,10.14Z" style="fill:#78909c"/><path d="M47.34,10.14a2.41,2.41,0,0,0-2.69,2.15L45,17.07a3.66,3.66,0,0,0,2.25,1.37A4.79,4.79,0,0,0,51,16.32c-.07-1.45-.15-3.33-.15-4C50.86,11.1,49.9,10.14,47.34,10.14Z" style="fill:#ccd6db"/><path d="M47.82,19.93a7.19,7.19,0,0,0,4.56-1.63l-2.3-.82-7.61.09A7.2,7.2,0,0,0,47.82,19.93Z" style="fill:#eceff1"/><rect x="44.12" y="21.01" width="2.57" height="2.57" style="fill:#78909c"/><circle cx="46.41" cy="12.54" r="0.51" style="fill:#78909c"/><circle cx="49.09" cy="12.36" r="0.51" style="fill:#78909c"/><path d="M52.05,22.35a1.82,1.82,0,0,0-3.33-1l2.91,2.18A1.81,1.81,0,0,0,52.05,22.35Z" style="fill:#78909c"/><path d="M50.23,24.17a1.82,1.82,0,0,0,1.4-.66l-2.91-2.18a1.82,1.82,0,0,0,1.5,2.84Z" style="fill:#b0bec5"/><polygon points="71.54 10.68 62.5 10.68 62.41 10.68 62.23 10.68 62.23 45.87 62.5 45.87 62.5 18.11 71.54 18.11 71.54 10.68" style="fill:#78909c"/><path d="M65,17.13s.72.63,1.61-.72a2.69,2.69,0,0,0,3.4-2.6c.07-3-4.3-2.58-4.83-2-.33.28-2.24,2,0,4.12C65.18,16,65.63,16.23,65,17.13Z" style="fill:#98aab3"/><rect x="61.4" y="23.95" width="1.68" height="1.7" style="fill:#ccd6da"/></svg>