<svg version="1.1" id="nonetwork" xmlns="http://www.w3.org/2000/svg" xmlns:xlink="http://www.w3.org/1999/xlink" viewBox="0 0 99 99" enable-background="new 0 0 99 99">
	<g>
		<path style="fill:#6F38D4;" d="M91.015,48.846c0,20.145-17.298,36.475-38.637,36.475S15.427,70.974,14.879,50.837
			c-0.456-16.729,15.591-34.141,36.759-35.393C72.939,14.184,91.015,28.702,91.015,48.846z"/>
		<path style="fill:#BD79FF;" d="M27.536,62.317c0,0,0.64,3.329,3.627,4.054c0,0-3.158,1.665-3.627,4.012
			c0,0-0.512-2.689-3.884-4.033C23.652,66.35,26.653,65.232,27.536,62.317z"/>
		<path style="fill:#FFFFFF;" d="M32.116,47.735l-7.853-5.348c0,0-2.959-0.626-4.809,1.821c-1.849,2.446-0.793,6.161-0.416,6.401
			l1.1,0.701c-0.562,0.79-1.558,2.48-0.883,3.766c0.91,1.735,3.557,3.442,5.207,2.589c0.982-0.508,1.708-1.488,2.127-2.319
			c0.624,0.055,3.261,0.153,4.573-1.921C31.163,53.426,33.425,50.524,32.116,47.735z M24.406,55.56
			c-0.597,0.399-1.906,0.683-2.902-0.483c-0.773-0.905-0.431-2.151,0.093-2.837l3.467,2.208
			C24.886,54.927,24.659,55.392,24.406,55.56z"/>
		<path style="fill:#BD79FF;" d="M13.509,49.329c0,0-1.024-0.143-0.483-0.968c0.54-0.825,1.934-1.65,4.239-0.427
			c0,0,1.764,0.826,2.22-0.967c0.455-1.792,3.414-4.325,5.121-2.589c1.707,1.735-0.569,5.263-2.276,5.804
			c-1.707,0.542-3.727-0.626-5.32-0.796C15.416,49.215,13.854,49.442,13.509,49.329z"/>
		<path style="fill:#BD79FF;" d="M8.701,48.817c0,0,1.877-0.825,2.646,0c0.769,0.825-0.256,1.395-0.711,1.707
			C10.18,50.837,6.453,50.296,8.701,48.817z"/>
		<ellipse style="fill:#BD79FF;" cx="83.641" cy="47.522" rx="2.219" ry="2.205"/>
		<ellipse style="fill:#BD79FF;" cx="66.553" cy="26.456" rx="1.633" ry="1.623"/>
		<g>
			<path style="fill:#DDDDDD;" d="M61.212,41.434c0,0,0.896-4.396,4.694-3.073c3.798,1.323,6.061,9.175,8.109,9.944
				c2.048,0.768,5.719,4.054,4.609,9.047l9.986,15.791l-1.237,1.237l-9.986-15.892c0,0-0.598,1.424-2.219,1.552
				c-1.622,0.128-6.829-3.116-7.639-4.609C66.718,53.938,61.212,41.434,61.212,41.434z"/>
			<ellipse style="fill:#FF0000;" cx="88.264" cy="74.869" rx="2.404" ry="1.963"/>
		</g>
		<path style="fill:#FFFFFF;" d="M34.096,43.854l5.036,8.406c0,0,2.134,2.646,0,5.206c-2.133,2.561-6.316,10.669-2.646,18.266
			c0,0,2.475,3.926,4.78,2.731c0,0,1.451-0.426,0.938-2.389c0,0,0-1.195,0.854-0.427c0,0,1.195,2.476,2.304-0.256l-1.877-4.951
			c0,0-1.11-5.206,4.438-7.34c0,0,3.329-1.536,3.072,1.11c0,0-3.67,7.169,0.769,10.499c4.438,3.329,12.632,3.5,18.521-1.109
			c5.89-4.61,7.34-9.986,6.23-12.889c-1.109-2.902-6.23-5.207-6.23-5.207s-5.122-2.576-0.256-5.342
			c4.865-2.767,9.901-8.741,8.621-16.594c0,0-2.39-4.353-5.122-2.219l-0.426,1.622c0,0-0.654,0.399-0.796-0.341
			c-0.143-0.74-0.882-1.906-1.792,0c0,0,0.644,4.581-2.453,7.995c0,0-4.547,2.816-6.424-1.082c-1.878-3.898-4.667-8.62-2.703-12.376
			c1.963-3.755,1.454-2.589,1.963-3.755c0.51-1.167,0.272-5.207-0.342-5.889c-0.614-0.683-10.157-3.841-10.157-3.841
			s-3.243,0.769-3.669,3.5c-0.427,2.731,3.84,3.926,3.84,3.926s1.963,1.025,0.256,3.244c-1.707,2.219-6.231,8.535-2.561,13.571
			l-2.305,1.536c0,0-4.523-5.292-3.158-8.706c1.366-3.414,1.667-3.614,2.134-4.78c0.467-1.166,0.756-4.068,0.17-4.609
			s-9.645-3.84-9.645-3.84s-5.786,0-3.064,5.633l3.149,1.736c0,0,0.938,0.911-0.171,2.618C34.267,29.214,30.17,38.265,34.096,43.854
			z"/>
		<path style="fill:#00D4B5;" d="M45.189,53.91c0,0,0.469,0.854,1.238,0l2.518-1.195c0,0,0.597-0.299,0.213-1.11l-0.427-0.811
			c0,0-0.426-0.725-1.28,0l-2.475,1.366c0,0-0.555,0.512-0.299,0.896C44.933,53.44,45.189,53.91,45.189,53.91z"/>
		<path style="fill:#FF0000;" d="M46.555,56.556c0,0-0.427-0.597,0.213-0.982c0.64-0.384,2.519-1.579,2.519-1.579
			s0.768-0.649,1.408,0.294c0.64,0.944,1.067,1.626,1.067,1.626s0.256,0.683-0.384,1.067c-0.64,0.384-2.86,1.664-2.86,1.664
			s-0.469,0.299-1.024-0.341C46.939,57.666,46.555,56.556,46.555,56.556z"/>
		<ellipse style="fill:#FF76DA;" cx="55.261" cy="53.035" rx="2.176" ry="2.069"/>
		<path style="fill:#4620AE;" d="M52.27,68.628c0,0-0.342,6.53,7.809,6.23c8.151-0.298,12.718-6.017,13.614-7.553
			C74.589,65.769,70.833,54.161,52.27,68.628z"/>
		<path style="fill:#FFFFFF;" d="M52.942,69.018c0,0,3.642,2.902,6.017-1.462l1.57-0.799c0,0,3.171,2.536,4.833-2.272l1.379,0.949
			l-1.366,3.158l-7.938,3.329C57.438,71.919,51.946,70.639,52.942,69.018z"/>
		<path style="fill:#FF76DA;" d="M69.585,63.896l-0.981-2.359c0,0-11.395-1.315-17.327,6.072c0,0-0.171,7.512,8.279,5.804
			C68.006,71.706,70.566,66.926,69.585,63.896z M56.654,70.981c-1.58,0-2.689-0.838-2.689-2.134s1.167-2.76,2.746-2.76
			c1.579,0,2.489,1.307,2.489,2.604S58.233,70.981,56.654,70.981z M63.119,68.42c-1.543,0-2.653-0.901-2.653-2.162
			c0-1.261,1.415-2.774,2.958-2.774c1.544,0,2.49,1.392,2.49,2.653C65.915,67.397,64.663,68.42,63.119,68.42z"/>
		<path style="fill:#FFFFFF;" d="M36.486,75.731c0,0,2.475,3.926,4.78,2.731c0,0,1.451-0.426,0.938-2.389c0,0,0-1.195,0.854-0.427
			c0,0,1.195,2.476,2.304-0.256l-1.775-4.679l-8.016,2.575C35.796,74.103,36.094,74.92,36.486,75.731z"/>
		<path style="fill:#FFFFFF;" d="M71.634,49.129c-0.531,0.38-1.069,0.727-1.605,1.031"/>
		<g>
			<path style="fill:#DDDDDD;" d="M45.106,21.361c-0.585-0.541-9.645-3.84-9.645-3.84s-1.327,0.001-2.411,0.62l12.367,4.271
				C45.383,21.918,45.287,21.527,45.106,21.361z"/>
			<path style="fill:#DDDDDD;" d="M60.555,17.521c-0.614-0.683-10.157-3.841-10.157-3.841s-0.88,0.212-1.784,0.798l12.393,4.458
				C60.9,18.266,60.746,17.732,60.555,17.521z"/>
			<path style="fill:#EEEEEE;" d="M39.131,57.466c-1.905,2.287-5.441,9-3.56,15.821l8.016-2.575l-0.103-0.272
				c0,0-0.893-4.203,2.95-6.604l-6.373-9.216C40.142,55.477,39.956,56.478,39.131,57.466z"/>
			<path style="fill:#EEEEEE;" d="M70.235,36.438c-0.33,1.345-0.966,2.854-2.174,4.185c0,0-2.848,1.762-4.967,0.563
				c0.71,4.393,4.818,8.026,6.42,9.294c0.159-0.106,0.328-0.213,0.516-0.32c0.536-0.305,1.074-0.651,1.605-1.031
				c2.495-1.788,4.844-4.393,6.15-7.634c0.373-0.926,0.659-1.902,0.842-2.927L70.235,36.438z"/>
			<path style="fill:#EEEEEE;" d="M42.802,30.75c1.366-3.414,1.667-3.614,2.134-4.78c0.324-0.808,0.561-2.447,0.482-3.559
				l-12.367-4.271c-1.179,0.674-2.071,2.078-0.653,5.013l3.149,1.736c0,0,0.938,0.911-0.171,2.618
				c-0.479,0.735-1.509,2.833-2.215,5.429c2.027-0.19,5.063,0.379,4.873,5.581c-0.169,4.609-2.301,5.371-4.008,5.229
				c0.024,0.036,0.045,0.072,0.069,0.107l2.769,4.621c3.021-0.167,8.83-1.474,9.085-9.031C45.727,39.18,41.472,34.076,42.802,30.75z
				"/>
			<path style="fill:#EEEEEE;" d="M60.897,23.41c0.352-0.806,0.348-2.979,0.109-4.474l-12.393-4.458
				c-0.831,0.539-1.681,1.393-1.885,2.701c-0.427,2.731,3.84,3.926,3.84,3.926s1.963,1.025,0.256,3.244
				c-0.447,0.58-1.086,1.443-1.721,2.488c1.585,0.491,4.368,1.906,3.582,5.707c-0.797,3.859-3.056,5.103-4.944,4.545
				c0.153,0.28,0.323,0.558,0.522,0.831l-0.424,0.283c2.179,2.89,6.711,6.591,12.564-1.17c-1.597-3.302-3.028-6.888-1.472-9.867
				C60.897,23.41,60.387,24.576,60.897,23.41z"/>
		</g>
	</g>
</svg>
