<svg id="people" xmlns="http://www.w3.org/2000/svg" viewBox="0 0 99 99"><path d="M72,37s-1.15,7.79,1,7.73L75.88,46a12.35,12.35,0,0,1,.7-3c.45-.87,1.18-3.85-.11-5S72.36,35.54,72,37Z" style="fill:#ced7dc"/><path d="M71.56,81.2l-1.38,1.74c-.56.84.37.87.37.87l5.09-2.16,0-1.22L71.55,81Z" style="fill:#79919d"/><path d="M77.94,55.09l.34-2.81c1-5.79-2.25-7.19-2.25-7.19l-2.44-1.87-.1,5.51-6-6,.76,4.47L69,55.06v.07l8.9,0Z" style="fill:#79919d"/><path d="M87,77.78l.11.1L87,81.51c.67.7,1,.25,1,.25l2-5.45-.87-1.18Z" style="fill:#79919d"/><path d="M83,66.81,77.94,55.09l-8.9,0L71.55,81l4.06-.59L75,61.95C77.49,69.07,86,76.82,87,77.78l2.08-2.66Z" style="fill:#cfd9de"/><path d="M61.75,34.46l.31.76-2-.7c-.45-.17-.48.39-.48.39l.14,1.29,2.45,1.46,5.26,5.06,6,6,.1-5.51-11.7-9Z" style="fill:#cfd9de"/><line x1="66.87" y1="42.4" x2="67.46" y2="42.72" style="fill:#79919d"/><path d="M67.46,42.72l-9-4.89-.28,0,.42,1.1L57,38.42c-1.15-.59-.53,1.46-.53,1.46l11.72,7.31Z" style="fill:#cfd9de"/><path d="M75.57,38.75s-5.51,0-4.1-3.26,6.46,3,6.3,4a8.11,8.11,0,0,1-1.35,4.27s-.25-1.6.17-2.11-.06-1.83-1.1-1.21A6.8,6.8,0,0,1,75.57,38.75Z" style="fill:#79919d"/><circle cx="72.42" cy="39.48" r="0.33" style="fill:#79919d"/><circle cx="73.88" cy="39.51" r="0.33" style="fill:#79919d"/><path d="M72,40.9H74S72.89,42.93,72,40.9Z" style="fill:#fff"/><path d="M29.94,46.84a10.69,10.69,0,0,1,3.13-1.52c1.22-.2,2.68,2.25,2.68,2.25s3-.56,4.11-3,.2-6-1.57-7.43a5.16,5.16,0,0,0-4.5-.82c-.78.16-4.3,3-4.3,3a16,16,0,0,1-2.89,1.05c-1.22.25-2.33,2.7-1.48,4.4S28.53,46.94,29.94,46.84Z" style="fill:#79919d"/><path d="M35.62,46.94a1.71,1.71,0,0,0,.29.08h.94a2.7,2.7,0,0,0,1.75-1.36H34.88A2.08,2.08,0,0,0,35.62,46.94Z" style="fill:none"/><path d="M27.61,53.13l10-.1c.13-.36.28-.74.44-1.15l-10-.06C27.9,52.29,27.75,52.73,27.61,53.13Z" style="fill:#cfd9de"/><path d="M28.54,50,38.79,50l.56-1.29-10.61.11C28.69,49.21,28.63,49.59,28.54,50Z" style="fill:#cfd9de"/><path d="M26.9,54.92,21.08,62.7l-4,2.3,2.22,3.56.05,0a27.88,27.88,0,0,0,10.75-7.06L29.9,73l3.91,1.63L37,55v0L27,54.79Z" style="fill:#79919d"/><polygon points="10.37 68.92 9 73.66 9.59 73.83 10.44 72.65 10.46 68.87 10.37 68.92" style="fill:#79919d"/><polygon points="29.7 82.62 34.72 84.1 34.86 83.82 33.39 82.44 29.7 82.57 29.7 82.62" style="fill:#79919d"/><path d="M35.64,44,28.8,44c0,.51,0,1.07,0,1.65h6.11A2,2,0,0,1,35.64,44Z" style="fill:#fff"/><path d="M35.62,46.94a2.08,2.08,0,0,1-.75-1.29H28.77c0,.36,0,.74.06,1.12,0,.09,0,.18,0,.27l7.06,0A1.71,1.71,0,0,1,35.62,46.94Z" style="fill:#cfd9de"/><path d="M36.34,43.39a3.17,3.17,0,0,0,1.08-4.51,4.68,4.68,0,0,1-2.49-.59,9,9,0,0,1-2.55,4.09c.21-.7.51-5.61.51-5.61L37.25,29l-.08-.25-.46,0c1-1.29,0-1.71,0-1.71-1.77-.72-1.9,2.74-1.9,2.74-4.11,4.07-5.5,11-5.5,11A17.54,17.54,0,0,0,28.8,44l3.44,0a3.1,3.1,0,0,0,2.84,2.26A2,2,0,0,1,35.64,44,5.33,5.33,0,0,1,36.34,43.39Z" style="fill:#b0bec5"/><path d="M44,31.86,42,30l-.65,7.44L40,39.93a7.75,7.75,0,0,1-.14,2.5c-.09.44-.45,1.51-.45,1.51l2.16,0C43,41.59,44,36.21,44,36.21Z" style="fill:#b0bec5"/><path d="M36.85,47h3.29l.62-1.35H38.6A2.7,2.7,0,0,1,36.85,47Z" style="fill:#cfd9de"/><path d="M10.45,68.87l0,3.78L11.63,71a45.66,45.66,0,0,0,7.7-2.42L17.12,65Z" style="fill:#b0bec5"/><polygon points="29.7 82.57 33.39 82.44 32.65 81.74 33.81 74.64 29.9 73.02 29.7 82.57" style="fill:#b0bec5"/><path d="M27,54.79,37,54.94a9.61,9.61,0,0,1,.54-1.9l-10,.1C27.32,53.92,27.07,54.53,27,54.79Z" style="fill:#fff"/><path d="M28,51.82l10,.06c.24-.59.5-1.22.77-1.86L28.54,50C28.4,50.6,28.23,51.23,28,51.82Z" style="fill:#fff"/><path d="M35.91,47l-7.06,0a9.63,9.63,0,0,1-.11,1.81l10.61-.11L40.13,47H36.85A2.34,2.34,0,0,1,35.91,47Z" style="fill:#fff"/><path d="M38.6,45.65h2.16c.46-1,.77-1.62.77-1.62l.06-.1-2.16,0S38.77,45.36,38.6,45.65Z" style="fill:#fff"/><circle cx="35.8" cy="40.03" r="0.35" style="fill:#79919d"/><circle cx="37.2" cy="40.04" r="0.31" style="fill:#79919d"/><path d="M35.33,41.41h2S36.52,43.34,35.33,41.41Z" style="fill:#fff"/><circle cx="46.56" cy="24.11" r="9.21" style="fill:#eef2f5"/><path d="M41.81,27s3.33-2.91,5.65-2.36v2.11l3.84-3.5L47.5,19.62v2.11S43,21.65,41.81,27Z" style="fill:#79919d"/></svg>